<?xml version="1.0" encoding="UTF-8"?>
<svg version="1.1" xmlns="http://www.w3.org/2000/svg" width="1024" height="1024">
<path d="M0 0 C337.92 0 675.84 0 1024 0 C1024 337.92 1024 675.84 1024 1024 C686.08 1024 348.16 1024 0 1024 C0 686.08 0 348.16 0 0 Z " fill="#F6F6F6" transform="translate(0,0)"/>
<path d="M0 0 C0.85149628 -0.00376648 1.70299255 -0.00753296 2.58029175 -0.01141357 C17.74636233 -0.04540306 32.28951922 1.28768031 47.125 4.625 C48.1056543 4.84373779 49.08630859 5.06247559 50.09667969 5.2878418 C96.69954391 15.93109338 139.94231068 42.74456157 169.625 80.3125 C170.81416016 81.75882813 170.81416016 81.75882813 172.02734375 83.234375 C182.12539544 95.80509338 189.58197156 109.82381079 196.5625 124.3125 C197.01101318 125.24304199 197.45952637 126.17358398 197.92163086 127.13232422 C212.36599109 157.76625717 216.8854128 190.72620588 215.625 224.3125 C215.58632813 225.37210938 215.54765625 226.43171875 215.5078125 227.5234375 C213.29873807 278.07225821 192.22969611 326.48949871 157.08349609 362.80273438 C156.06944979 363.85242676 155.06244678 364.90895043 154.06103516 365.97070312 C130.52578925 390.90443035 100.80359304 408.0371945 68.625 419.3125 C67.94969238 419.55838867 67.27438477 419.80427734 66.57861328 420.05761719 C49.37735366 426.29724616 29.91140859 430.01606379 11.625 430.3125 C10.71443848 430.34214844 9.80387695 430.37179687 8.86572266 430.40234375 C-15.13952469 431.15192212 -38.40423848 428.42224627 -61.375 421.3125 C-62.05046875 421.10963379 -62.7259375 420.90676758 -63.421875 420.69775391 C-92.86636207 411.70320492 -120.40470354 395.53359353 -142.88671875 374.61328125 C-145.04679288 372.61597565 -147.25047945 370.70706662 -149.5 368.8125 C-154.2208026 364.68418679 -158.31234675 360.08114355 -162.375 355.3125 C-162.82891113 354.78156738 -163.28282227 354.25063477 -163.75048828 353.70361328 C-188.03685043 325.0554172 -204.16029933 290.31782801 -210.375 253.3125 C-210.58769531 252.16136719 -210.80039062 251.01023437 -211.01953125 249.82421875 C-218.74332133 206.98218888 -212.755682 160.25331475 -193.375 121.3125 C-193.02179688 120.59513672 -192.66859375 119.87777344 -192.3046875 119.13867188 C-181.97099438 98.34118517 -168.38868873 80.07209563 -152.375 63.3125 C-151.12396484 61.99958984 -151.12396484 61.99958984 -149.84765625 60.66015625 C-110.51040785 20.32860142 -55.57337092 0.1362108 0 0 Z " fill="#070707" transform="translate(512.375,296.6875)"/>
<path d="M0 0 C1.21171875 -0.02578125 2.4234375 -0.0515625 3.671875 -0.078125 C8.80392176 0.39249938 11.90555341 1.85130381 15.4765625 5.56640625 C21.72370449 15.01968058 23.83507705 27.71915619 26.71875 38.5625 C27.90011573 42.99412069 29.15522641 47.39836248 30.45043945 51.79785156 C43.02772337 94.70809482 51.32220888 139.11406859 58.25 183.25 C58.42611816 184.35875488 58.60223633 185.46750977 58.78369141 186.60986328 C59.79859094 193.14075816 60.56957521 199.6766655 61.25 206.25 C61.38390137 207.43029785 61.51780273 208.6105957 61.65576172 209.82666016 C64.19874633 232.92519865 64.59692928 256.04787259 64.67709732 279.26347733 C64.68730254 281.58017349 64.70467189 283.89671183 64.72396851 286.21334839 C64.93177191 313.69790899 62.68389802 340.54915442 57.12231445 367.51611328 C56.67049152 369.70749256 56.23749955 371.90206601 55.80664062 374.09765625 C51.04787023 398.05924664 51.04787023 398.05924664 47.25 402.25 C40.90074471 405.51454085 34.25903013 406.41880046 27.1875 406.5625 C25.97964844 406.59988281 24.77179688 406.63726563 23.52734375 406.67578125 C20.25 406.25 20.25 406.25 17.84765625 404.5234375 C14.90919344 400.34205521 15.67815746 396.1621274 16.25 391.25 C17.09070232 387.11940644 18.08126404 383.04496326 19.10546875 378.95703125 C23.00081433 363.2732268 25.24106204 347.26574174 27.25 331.25 C27.42112305 330.14825439 27.59224609 329.04650879 27.76855469 327.91137695 C28.59493625 321.25018642 28.48818847 314.51537519 28.56640625 307.8125 C28.58701094 306.32177195 28.60800825 304.83104929 28.62937927 303.34033203 C28.68423734 299.4409423 28.73380453 295.54150306 28.78222656 291.64202881 C28.84160417 286.95035968 28.90763003 282.25877986 28.97252655 277.56718445 C29.0700789 270.46151143 29.15924686 263.35577775 29.25 256.25 C8.46 256.25 -12.33 256.25 -33.75 256.25 C-34.182403 301.50818038 -32.21844163 345.48639201 -21.31982422 389.62036133 C-20.50972097 393.35884552 -20.32694928 396.44254349 -20.75 400.25 C-21.90625 401.93359375 -21.90625 401.93359375 -23.75 403.25 C-33.76994492 404.87130304 -44.44730764 402.62853579 -52.96875 397.19921875 C-56.79379929 393.78940708 -57.39478808 389.61961707 -58.3125 384.75 C-58.50884033 383.80237793 -58.70518066 382.85475586 -58.9074707 381.87841797 C-59.55610053 378.67460312 -60.15864267 375.46486724 -60.75 372.25 C-60.97075195 371.05922852 -61.19150391 369.86845703 -61.41894531 368.64160156 C-66.78227989 339.35426523 -68.98301089 310.99443806 -69 281.25 C-69.00100708 280.01799866 -69.00201416 278.78599731 -69.00305176 277.5166626 C-68.99190221 257.26089105 -68.17729791 237.35603214 -65.75 217.25 C-65.60014648 215.96673828 -65.45029297 214.68347656 -65.29589844 213.36132812 C-63.23926492 196.02622187 -60.48855569 178.81918561 -57.36474609 161.64648438 C-56.79732859 158.51149138 -56.25051607 155.37358494 -55.70703125 152.234375 C-53.11205285 137.66303318 -49.69309583 123.31168695 -46.1875 108.9375 C-45.94988953 107.96014893 -45.71227905 106.98279785 -45.46746826 105.97583008 C-43.08385199 96.203065 -40.67674338 86.4785105 -37.57421875 76.9050293 C-36.69835418 74.08363497 -35.9895351 71.25006325 -35.3125 68.375 C-34.065451 63.22502467 -32.45297351 58.26122025 -30.73120117 53.25195312 C-29.00741156 48.17402336 -27.53411589 43.04834624 -26.125 37.875 C-24.50097359 31.93076605 -22.84048266 26.05006463 -20.75 20.25 C-20.40453125 19.19039063 -20.0590625 18.13078125 -19.703125 17.0390625 C-16.02590111 6.41331813 -11.7171849 0.1483188 0 0 Z " fill="#F8F8F7" transform="translate(504.75,307.75)"/>
<path d="M0 0 C12.09684971 3.44611311 16.68581455 12.71012342 22.89453125 22.94921875 C23.60121492 24.10710981 24.30792102 25.2649872 25.01464844 26.42285156 C31.71989793 37.44870296 38.10090968 48.64955802 44.33203125 59.94921875 C44.8209082 60.83464355 45.30978516 61.72006836 45.81347656 62.63232422 C49.35181952 69.05397999 52.84899557 75.49742805 56.33203125 81.94921875 C57.25000488 83.64763916 57.25000488 83.64763916 58.18652344 85.38037109 C65.43645791 98.80187816 72.66261971 112.22685123 79.33203125 125.94921875 C79.51266113 125.1713501 79.69329102 124.39348145 79.87939453 123.59204102 C82.29083914 113.21429852 82.29083914 113.21429852 83.41748047 108.42382812 C83.74323871 107.03777796 84.06892174 105.65171011 84.39453125 104.265625 C84.55817169 103.56909821 84.72181213 102.87257141 84.89041138 102.15493774 C85.94622097 97.64423911 86.96188794 93.12612264 87.95703125 88.6015625 C88.21081543 87.47613037 88.46459961 86.35069824 88.72607422 85.19116211 C89.20227412 83.07911853 89.66551033 80.96409695 90.11376953 78.84594727 C91.46274981 72.95718678 92.82666563 69.08371586 97.33203125 64.94921875 C102.88882343 64.05296195 105.71156918 64.75531393 110.62353516 67.70458984 C113.37736237 69.71073605 115.22032714 72.27388054 117.08203125 75.07421875 C117.49976807 75.68402588 117.91750488 76.29383301 118.34790039 76.92211914 C119.69803682 78.91739588 121.01795827 80.93003344 122.33203125 82.94921875 C122.77595215 83.62291504 123.21987305 84.29661133 123.67724609 84.99072266 C137.76147165 106.54116227 148.20213129 129.69432665 153.33203125 154.94921875 C153.51685059 155.81289063 153.70166992 156.6765625 153.89208984 157.56640625 C159.71276079 185.403112 159.00191004 214.16204807 153.33203125 241.94921875 C153.16606445 242.83996094 153.00009766 243.73070312 152.82910156 244.6484375 C146.94769158 276.06291478 131.45461099 306.94142997 110.33203125 330.94921875 C106.14125644 333.80656521 102.43418483 334.530102 97.453125 334.37890625 C93.99232129 333.67782263 92.40702234 331.67264455 90.33203125 328.94921875 C88.8014681 325.88809245 89.11992241 323.33411318 89.33203125 319.94921875 C90.47436523 317.04101562 90.47436523 317.04101562 92.078125 314.16796875 C92.66416504 313.0898291 93.25020508 312.01168945 93.85400391 310.90087891 C94.48612793 309.76183105 95.11825195 308.6227832 95.76953125 307.44921875 C107.50172026 285.73765338 115.50385393 263.13021483 120.33203125 238.94921875 C120.48591309 238.21977051 120.63979492 237.49032227 120.79833984 236.73876953 C125.56783924 213.59251785 125.01995007 188.04459503 120.33203125 164.94921875 C120.08686674 163.60210089 119.8446072 162.25445064 119.60546875 160.90625 C118.03013266 152.41501536 115.8379325 144.20470052 113.33203125 135.94921875 C113.00203125 135.94921875 112.67203125 135.94921875 112.33203125 135.94921875 C112.20151367 136.64781006 112.07099609 137.34640137 111.93652344 138.06616211 C109.36549838 151.77341785 106.71135853 165.41715274 103.33203125 178.94921875 C103.08839844 180.03847656 102.84476563 181.12773437 102.59375 182.25 C101.26956427 187.83525267 100.09996328 191.34419697 95.33203125 194.94921875 C92.19146101 196.82148178 89.66691629 197.3254037 86.01953125 197.44921875 C85.11589844 197.50078125 84.21226562 197.55234375 83.28125 197.60546875 C78.86071381 196.62182626 76.33550957 194.28417714 73.33203125 190.94921875 C70.95390937 187.16830425 69.0691803 183.19570597 67.171875 179.15625 C66.61891251 178.01443771 66.06595001 176.87262543 65.49623108 175.69621277 C64.03510509 172.67272963 62.58824548 169.64328212 61.14849854 166.60961914 C59.1264869 162.35863489 57.07705968 158.12076933 55.03211975 153.88078308 C53.94866238 151.63028523 52.86978023 149.37757665 51.79637146 147.12226868 C48.52215666 140.27163395 45.03773812 133.57647904 41.33203125 126.94921875 C41.55342773 128.21588379 41.77482422 129.48254883 42.00292969 130.78759766 C50.92353068 181.94810227 50.92353068 181.94810227 53.33203125 203.94921875 C53.40508484 204.59783875 53.47813843 205.24645874 53.55340576 205.91473389 C57.88678637 244.53358925 58.32188989 284.28207023 54.33203125 322.94921875 C54.23019531 324.00238281 54.12835937 325.05554688 54.0234375 326.140625 C52.8550669 338.01184731 51.15629368 349.73618039 48.89453125 361.44921875 C48.60485474 362.9801416 48.60485474 362.9801416 48.30932617 364.54199219 C46.85725881 371.6725849 45.26225422 378.78199245 40.20703125 384.24609375 C36.08256097 386.68939408 31.7898528 388.4548538 27.33203125 390.19921875 C26.44257812 390.56273437 25.553125 390.92625 24.63671875 391.30078125 C23.34121094 391.81511719 23.34121094 391.81511719 22.01953125 392.33984375 C21.23964844 392.64954102 20.45976563 392.95923828 19.65625 393.27832031 C17.08100036 394.02168019 14.99954266 394.15650773 12.33203125 393.94921875 C10.546875 392.67578125 10.546875 392.67578125 9.33203125 390.94921875 C8.54301827 384.41168259 10.03904949 378.65316295 11.625 372.35571289 C14.05750834 362.42191473 15.41470522 352.30465994 16.86621094 342.18994141 C17.30563649 339.13284773 17.75913326 336.07813797 18.21484375 333.0234375 C18.48416437 331.16552247 18.75244812 329.30745675 19.01953125 327.44921875 C19.1388501 326.65169189 19.25816895 325.85416504 19.38110352 325.0324707 C21.63996919 308.7957508 21.53853418 292.30748897 21.51953125 275.94921875 C21.51812637 274.3756813 21.51812637 274.3756813 21.51669312 272.77035522 C21.46056212 243.57034886 19.48225598 215.22881042 15.23219299 186.34246826 C14.62244636 182.14929625 14.09263132 177.95616194 13.631073 173.74420166 C12.46496748 163.11933901 10.64303581 152.64551931 8.70703125 142.13671875 C8.53351135 141.18711273 8.35999146 140.23750671 8.18121338 139.25912476 C4.83982787 121.02299511 1.00142053 102.92403319 -3.21875 84.87249756 C-3.6494886 83.02833939 -4.07677509 81.18337594 -4.50390625 79.33837891 C-9.98587961 55.71093805 -15.99403041 31.97103376 -23.66796875 8.94921875 C-24.01147405 5.17066042 -24.18075371 2.81872369 -22.23046875 -0.48828125 C-15.67780602 -4.4838073 -7.02082296 -1.48926548 0 0 Z " fill="#F8F8F7" transform="translate(558.66796875,312.05078125)"/>
<path d="M0 0 C2.39285898 3.16474897 2.68037699 4.97325662 2.39086914 8.87646484 C1.90289778 11.76750465 1.02687897 14.01434727 -0.1640625 16.69140625 C-2.42669362 21.95797258 -4.47097831 27.27076388 -6.4375 32.65234375 C-7.03626007 34.2767658 -7.63522089 35.90111387 -8.234375 37.52539062 C-9.15586874 40.02669363 -10.07305346 42.52922173 -10.97851562 45.03637695 C-11.86887638 47.49654667 -12.77660738 49.94971443 -13.6875 52.40234375 C-14.08461182 53.52116188 -14.08461182 53.52116188 -14.48974609 54.6625824 C-16.89787046 61.06835687 -20.76536555 65.53265254 -26.90625 68.83203125 C-32.82601806 70.83745992 -39.03520988 70.52279532 -44.625 67.875 C-47.6841286 64.97274979 -49.87367163 62.81585183 -50.23828125 58.46484375 C-50.2486955 56.49655107 -50.16245495 54.52828064 -50.0625 52.5625 C-61.53749814 56.47202975 -71.40077418 67.31323731 -80.0625 75.5625 C-80.78050781 76.22765625 -81.49851562 76.8928125 -82.23828125 77.578125 C-104.58965414 98.89927429 -119.61519327 130.30138057 -124.6953125 160.546875 C-124.82881104 161.32272949 -124.96230957 162.09858398 -125.09985352 162.89794922 C-125.42414851 164.78554965 -125.74381623 166.67394412 -126.0625 168.5625 C-125.19885834 168.55361755 -124.33521667 168.54473511 -123.44540405 168.5355835 C-115.2945842 168.45533661 -107.14389759 168.39448435 -98.99277306 168.35525131 C-94.80246462 168.33440282 -90.61248341 168.30613584 -86.42236328 168.26074219 C-82.37637758 168.21718581 -78.33070605 168.1933423 -74.28450394 168.18299103 C-72.74315065 168.17561714 -71.20181398 168.16121743 -69.66059494 168.13957977 C-67.49650064 168.11041389 -65.33369375 168.10654924 -63.16943359 168.10839844 C-61.32410538 168.09507477 -61.32410538 168.09507477 -59.4414978 168.08148193 C-54.22735975 168.82374184 -51.17141102 171.30373614 -47.75 175.1875 C-44.10242225 180.32112794 -44.40017877 185.41677512 -45.0625 191.5625 C-46.7292751 196.40705193 -48.93535957 198.81119046 -53.1875 201.64550781 C-59.66823929 204.7973388 -66.90643326 204.05401622 -73.9375 203.953125 C-75.47305562 203.94565347 -77.00862085 203.93996485 -78.54418945 203.93597412 C-82.56226484 203.92078928 -86.57975079 203.88157085 -90.59759521 203.8371582 C-94.70690948 203.7960498 -98.8163201 203.77793007 -102.92578125 203.7578125 C-110.97162298 203.7150682 -119.01698792 203.64690553 -127.0625 203.5625 C-126.77231477 207.53578157 -126.47107045 211.5081533 -126.16796875 215.48046875 C-126.04609192 217.15200012 -126.04609192 217.15200012 -125.92175293 218.8572998 C-123.3780901 251.79199361 -109.32856961 287.75325367 -86.0625 311.5625 C-84.90602239 312.9075877 -83.75900219 314.26091041 -82.625 315.625 C-80.39861003 318.55279015 -80.39861003 318.55279015 -78.0625 319.5625 C-77.835625 318.82 -77.60875 318.0775 -77.375 317.3125 C-75.73004416 313.86592587 -74.36086383 312.49849616 -71.0625 310.5625 C-64.61116493 309.70232199 -59.55331094 311.06297059 -54.0625 314.5625 C-44.39010213 322.85045408 -43.2743564 334.74145565 -41.27270508 346.64575195 C-40.87615312 348.99317399 -40.46322607 351.33731123 -40.04882812 353.68164062 C-36.86990379 372.02349666 -36.86990379 372.02349666 -38.0625 376.5625 C-40.02896964 378.51294897 -41.31339303 379.46299434 -44.0769043 379.83007812 C-50.64745583 379.09842117 -55.3469451 376.5798662 -60.875 373.0625 C-61.7522876 372.51859619 -62.6295752 371.97469238 -63.53344727 371.41430664 C-70.33864387 367.14434243 -76.82222663 362.63051863 -83.0625 357.5625 C-84.55523437 356.37333984 -84.55523437 356.37333984 -86.078125 355.16015625 C-127.67879159 321.42306973 -155.03416794 272.45729914 -160.84837341 219.01121521 C-161.19897203 215.00182912 -161.24506113 211.00326436 -161.265625 206.98046875 C-161.27132507 206.08620682 -161.27702515 205.19194489 -161.28289795 204.27058411 C-161.29228993 202.3839331 -161.29885865 200.49726611 -161.30273438 198.6105957 C-161.31234493 195.7954239 -161.34338468 192.98101382 -161.375 190.16601562 C-161.47108744 173.85226578 -159.67484076 157.97355325 -155.4375 142.1875 C-155.18516602 141.24036133 -154.93283203 140.29322266 -154.67285156 139.31738281 C-144.56326577 103.00221198 -123.11937676 67.79349688 -94.0625 43.5625 C-93.11890625 42.73105469 -92.1753125 41.89960938 -91.203125 41.04296875 C-73.73954983 25.72494961 -24.09440163 -11.30961709 0 0 Z " fill="#F8F8F8" transform="translate(472.0625,315.4375)"/>
<path d="M0 0 C2.22525003 0.98654226 3.63544368 2.1396281 5.40234375 3.80859375 C10.55573531 8.67502151 15.42343845 9.19364346 22.33984375 9.12109375 C23.43425781 9.13269531 23.43425781 9.13269531 24.55078125 9.14453125 C29.38205874 9.12727669 33.37966141 8.39545516 37.96484375 6.87109375 C36.8107645 12.92980446 35.4958141 18.92488401 34.01123047 24.91088867 C28.03591267 49.01292735 23.21774921 73.41028348 18.96484375 97.87109375 C18.51496094 97.484375 18.06507813 97.09765625 17.6015625 96.69921875 C8.18261254 89.07345565 -1.23351311 87.27448132 -13.140625 87.26171875 C-14.34584305 87.2451825 -15.5510611 87.22864624 -16.7928009 87.21160889 C-20.60280608 87.16342932 -24.41241298 87.14182386 -28.22265625 87.12109375 C-30.82228534 87.0929091 -33.42189612 87.06297822 -36.02148438 87.03125 C-42.35930341 86.95767831 -48.69701181 86.90586041 -55.03515625 86.87109375 C-54.89653581 85.29012385 -54.75228335 83.70964722 -54.60571289 82.12939453 C-54.52599747 81.24921661 -54.44628204 80.3690387 -54.364151 79.46218872 C-53.88538233 75.69150518 -52.79208844 72.29655799 -51.47265625 68.74609375 C-51.2094458 68.02381592 -50.94623535 67.30153809 -50.67504883 66.55737305 C-44.62493102 50.44650331 -19.8366071 -1.25644536 0 0 Z " fill="#F8F8F8" transform="translate(415.03515625,386.12890625)"/>
<path d="M0 0 C0.66 0 1.32 0 2 0 C2.83212466 43.79536121 -6.601925 82.01743584 -27.45092773 120.69140625 C-31.60224011 128.50841971 -32.74200605 135.78133034 -30.30078125 144.49609375 C-27.76125834 150.16448034 -23.77523463 153.73304506 -18.125 156.3125 C-17.073125 156.6528125 -17.073125 156.6528125 -16 157 C-26.09776356 169.48933913 -39.41056638 180.15837119 -54 187 C-53.61664088 180.76049982 -52.81523264 174.70061071 -51.625 168.5625 C-46.30479467 141.04849985 -44.64740257 113.62737979 -44.73925781 85.64086914 C-44.75066252 82.13656991 -44.74386091 78.63257436 -44.73237038 75.12828541 C-44.68490023 58.00432346 -45.27805438 41.04695515 -47 24 C-47.09866364 23.01441605 -47.19732727 22.02883209 -47.29898071 21.01338196 C-47.83777737 15.67222522 -48.40228932 10.33488573 -49 5 C-48.43023438 5.73863281 -47.86046875 6.47726562 -47.2734375 7.23828125 C-41.92244223 13.73854526 -36.34504126 19.32406777 -27.7265625 20.2421875 C-20.15477294 20.63825034 -14.63209695 18.48804195 -8.4453125 14.25 C-5.60917895 11.64039469 -4.31395287 9.22985264 -2.6875 5.75 C-1.91986328 4.13351562 -1.91986328 4.13351562 -1.13671875 2.484375 C-0.76160156 1.66453125 -0.38648438 0.8446875 0 0 Z " fill="#F5F5F5" transform="translate(670,500)"/>
<path d="M0 0 C-0.41669352 5.81177802 -0.83578654 11.6165046 -1.4765625 17.40820312 C-3.21636367 33.64394616 -3.43019545 49.86960226 -3.60089111 66.17858887 C-3.64167198 69.89388114 -3.69241611 73.60903797 -3.7421875 77.32421875 C-3.83758014 84.54938449 -3.9223971 91.77461887 -4 99 C-6.41829781 98.04723903 -8.78740689 97.10807145 -11.10546875 95.9296875 C-19.85096403 91.49951166 -27.76999943 92.50299502 -37 95 C-48.37594422 83.2216912 -55.5256268 68.8688614 -62 54 C-62.34828857 53.20053955 -62.69657715 52.4010791 -63.05541992 51.57739258 C-65.57545309 45.55905801 -67.26358601 39.54703867 -68.6875 33.1875 C-69.00557617 31.81561523 -69.00557617 31.81561523 -69.33007812 30.41601562 C-69.89941986 27.94647341 -70.46056178 25.47624134 -71 23 C-71.17420975 22.246689 -71.34841949 21.49337799 -71.52790833 20.71723938 C-72.03192407 17.81625319 -72.09794455 15.12939783 -72.0625 12.1875 C-72.05347656 11.21167969 -72.04445313 10.23585938 -72.03515625 9.23046875 C-72.02355469 8.49441406 -72.01195312 7.75835938 -72 7 C-71.2955777 6.99635437 -70.5911554 6.99270874 -69.86538696 6.98895264 C-63.18710706 6.95089363 -56.50928099 6.89384076 -49.83133888 6.81609726 C-46.39909741 6.77679227 -42.96710595 6.74452181 -39.53466797 6.72900391 C-35.57747309 6.71079162 -31.62097063 6.66076626 -27.6640625 6.609375 C-26.44699615 6.60814636 -25.22992981 6.60691772 -23.97598267 6.60565186 C-15.5197101 6.46196076 -7.02167845 0 0 0 Z " fill="#FAFAF9" transform="translate(429,523)"/>
<path d="M0 0 C0.66 0.33 1.32 0.66 2 1 C2.68261719 3.33129883 2.68261719 3.33129883 3.296875 6.45703125 C3.53003418 7.61662354 3.76319336 8.77621582 4.00341797 9.97094727 C4.24979004 11.23865967 4.49616211 12.50637207 4.75 13.8125 C5.14971497 15.82138187 5.55242125 17.82964868 5.95541382 19.83787537 C6.23177685 21.2155839 6.50717531 22.59348624 6.78164673 23.97157288 C7.84017691 29.26958571 8.98699788 34.54499658 10.15795898 39.81933594 C13.14836091 53.34487193 15.71104376 66.9351204 18.1875 80.5625 C18.35594421 81.48676788 18.52438843 82.41103577 18.69793701 83.36331177 C27.06502001 129.39455325 27.06502001 129.39455325 27.02075195 142.74267578 C27.01625786 144.49996506 27.01625786 144.49996506 27.01167297 146.29275513 C27.00782089 147.18614594 27.00396881 148.07953674 27 149 C19.71578452 149.02312916 12.4315769 149.04091801 5.14733219 149.05181217 C1.76528187 149.05703975 -1.6167434 149.06413511 -4.9987793 149.07543945 C-8.88329777 149.08834267 -12.76780597 149.09322924 -16.65234375 149.09765625 C-17.87211411 149.10281754 -19.09188446 149.10797882 -20.34861755 149.11329651 C-22.03024742 149.11340981 -22.03024742 149.11340981 -23.74584961 149.11352539 C-24.73846298 149.115746 -25.73107635 149.11796661 -26.75376892 149.12025452 C-29 149 -29 149 -30 148 C-29.88617534 137.95627927 -28.00615523 127.9980961 -26.3125 118.125 C-26.18061279 117.34675873 -26.04872559 116.56851746 -25.9128418 115.76669312 C-21.93478929 92.30077707 -17.42743436 69.01924352 -11.70703125 45.90820312 C-10.55784631 41.18130707 -9.49935806 36.43463015 -8.4375 31.6875 C-6.78253691 24.33537492 -5.06030179 17.00301305 -3.25 9.6875 C-3.03915771 8.82664795 -2.82831543 7.9657959 -2.61108398 7.07885742 C-1.11999211 1.11999211 -1.11999211 1.11999211 0 0 Z " fill="#080808" transform="translate(504,380)"/>
<path d="M0 0 C13.53 0 27.06 0 41 0 C41.25523214 34.13020909 40.67013729 66.40982046 34 100 C33.80583496 100.98484375 33.61166992 101.9696875 33.41162109 102.984375 C30.5353783 117.44892174 30.5353783 117.44892174 28.8984375 122.19140625 C28.00100277 124.99686527 27.76144135 127.13359042 27.8125 130.0625 C27.81894531 130.87847656 27.82539063 131.69445312 27.83203125 132.53515625 C27.977026 135.44410623 27.977026 135.44410623 29 140 C22.73 140 16.46 140 10 140 C10.99 138.02 11.98 136.04 13 134 C14.25929616 127.05730141 12.01120014 120.10392593 10.25 113.4375 C5.83560734 95.91673904 2.69904763 78.00061164 1 60 C0.91097412 59.09781738 0.82194824 58.19563477 0.73022461 57.26611328 C-0.27218415 45.56398463 -0.1104689 33.86018403 -0.0625 22.125 C-0.05747343 19.97265729 -0.05291258 17.82031345 -0.04882812 15.66796875 C-0.03877672 10.44526063 -0.01918548 5.22271408 0 0 Z " fill="#F8F8F8" transform="translate(482,575)"/>
<path d="M0 0 C23.0419125 3.91784071 55.09540085 25.10222809 69 44 C68.48050781 44.20753906 67.96101562 44.41507812 67.42578125 44.62890625 C66.72839844 44.93699219 66.03101563 45.24507813 65.3125 45.5625 C64.62800781 45.85253906 63.94351563 46.14257812 63.23828125 46.44140625 C55.82947699 51.60041654 54.53876083 59.36399194 52.75 67.6875 C52.36714844 69.37842773 52.36714844 69.37842773 51.9765625 71.10351562 C51.5053415 73.18804852 51.0406933 75.27408674 50.58496094 77.36206055 C50.09188934 79.58561587 49.56562471 81.79399833 49 84 C48.34 84 47.68 84 47 84 C46.51756836 83.08001221 46.03513672 82.16002441 45.53808594 81.2121582 C32.84518725 57.02816926 19.72330798 33.25441317 5.43334961 9.97314453 C5.07278976 9.38423431 4.71222992 8.7953241 4.34074402 8.18856812 C3.35228424 6.57483467 2.36127588 4.96266311 1.37011719 3.35058594 C0 1 0 1 0 0 Z " fill="#F7F6F6" transform="translate(586,322)"/>
<path d="M0 0 C0.66 0.33 1.32 0.66 2 1 C2.70564672 3.81970904 3.28638877 6.5857149 3.8046875 9.44140625 C4.05079773 10.74103806 4.05079773 10.74103806 4.30187988 12.06692505 C4.83516385 14.89719693 5.35547342 17.72967319 5.875 20.5625 C6.23604399 22.49918818 6.5975353 24.43579303 6.95947266 26.37231445 C16 74.95727858 16 74.95727858 16 89 C5.44 89 -5.12 89 -16 89 C-12.3965602 58.97133502 -6.72686854 29.46980498 0 0 Z " fill="#F2F2F2" transform="translate(503,429)"/>
<path d="M0 0 C4.75 0.875 4.75 0.875 7 2 C7 2.66 7 3.32 7 4 C6.34 4 5.68 4 5 4 C5 4.66 5 5.32 5 6 C4.34 6 3.68 6 3 6 C2.01 4.02 1.02 2.04 0 0 Z " fill="#E0E0E1" transform="translate(586,322)"/>
</svg>
